<svg version="1.1" viewBox="0.0 0.0 822.0 454.0" fill="none" stroke="none" stroke-linecap="square" stroke-miterlimit="10" xmlns:xlink="http://www.w3.org/1999/xlink" xmlns="http://www.w3.org/2000/svg"><clipPath id="p.0"><path d="m0 0l822.0 0l0 454.0l-822.0 0l0 -454.0z" clip-rule="nonzero"/></clipPath><g clip-path="url(#p.0)"><path fill="#000000" fill-opacity="0.0" d="m0 0l822.0 0l0 454.0l-822.0 0z" fill-rule="evenodd"/><path fill="#b7b7b7" d="m36.76671 19.805775l102.42459 0c4.0180054 0 7.8714447 1.5961456 10.712601 4.4373055c2.841156 2.8411598 4.4373016 6.6945972 4.4373016 10.7126045l0 75.74773c0 6.1035156E-4 -4.8828125E-4 0.0011062622 -0.0010986328 0.0011062622l-132.7233 -0.0011062622l0 0c-6.122589E-4 0 -0.0011062622 -4.9591064E-4 -0.0011062622 -0.0011062622l0.0011062622 -75.74663l0 0c0 -8.367065 6.7828445 -15.14991 15.14991 -15.14991z" fill-rule="evenodd"/><path stroke="#000000" stroke-width="1.0" stroke-linejoin="round" stroke-linecap="butt" d="m36.76671 19.805775l102.42459 0c4.0180054 0 7.8714447 1.5961456 10.712601 4.4373055c2.841156 2.8411598 4.4373016 6.6945972 4.4373016 10.7126045l0 75.74773c0 6.1035156E-4 -4.8828125E-4 0.0011062622 -0.0010986328 0.0011062622l-132.7233 -0.0011062622l0 0c-6.122589E-4 0 -0.0011062622 -4.9591064E-4 -0.0011062622 -0.0011062622l0.0011062622 -75.74663l0 0c0 -8.367065 6.7828445 -15.14991 15.14991 -15.14991z" fill-rule="evenodd"/><path fill="#000000" d="m77.69869 53.11197l-3.5625 0l0 -1.09375q0 -0.765625 -0.140625 -0.96875q-0.125 -0.21875 -0.453125 -0.21875q-0.34375 0 -0.53125 0.28125q-0.171875 0.28125 -0.171875 0.859375q0 0.734375 0.203125 1.109375q0.1875 0.375 1.078125 0.90625q2.5625 1.515625 3.234375 2.484375q0.65625 0.984375 0.65625 3.15625q0 1.5625 -0.375 2.3125q-0.359375 0.75 -1.421875 1.265625q-1.046875 0.5 -2.453125 0.5q-1.53125 0 -2.625 -0.578125q-1.09375 -0.59375 -1.4375 -1.484375q-0.328125 -0.90625 -0.328125 -2.5625l0 -0.96875l3.5625 0l0 1.796875q0 0.828125 0.140625 1.0625q0.15625 0.234375 0.546875 0.234375q0.375 0 0.5625 -0.296875q0.1875 -0.296875 0.1875 -0.890625q0 -1.3125 -0.359375 -1.703125q-0.359375 -0.40625 -1.78125 -1.34375q-1.4375 -0.953125 -1.90625 -1.375q-0.453125 -0.421875 -0.765625 -1.171875q-0.296875 -0.765625 -0.296875 -1.9375q0 -1.703125 0.421875 -2.484375q0.4375 -0.78125 1.40625 -1.21875q0.96875 -0.453125 2.328125 -0.453125q1.5 0 2.546875 0.484375q1.046875 0.484375 1.390625 1.21875q0.34375 0.734375 0.34375 2.484375l0 0.59375zm5.2875824 -3.421875l0 1.90625l1.0 0l0 1.90625l-1.0 0l0 6.46875q0 1.203125 0.125 1.34375q0.125 0.125 1.03125 0.125l0 1.953125l-1.484375 0q-1.265625 0 -1.796875 -0.09375q-0.53125 -0.109375 -0.953125 -0.484375q-0.40625 -0.390625 -0.515625 -0.875q-0.09375 -0.484375 -0.09375 -2.296875l0 -6.140625l-0.796875 0l0 -1.90625l0.796875 0l0 -1.90625l3.6875 0zm9.512451 1.609375l-1.046875 8.75q-0.25 2.078125 -0.421875 2.84375q-0.171875 0.75 -0.5625 1.234375q-0.390625 0.5 -1.09375 0.71875q-0.6875 0.234375 -2.21875 0.234375l-2.234375 0l0 -1.921875q0.859375 0 1.09375 -0.078125q0.25 -0.09375 0.25 -0.390625q0 -0.15625 -0.21875 -1.28125l-2.015625 -10.109375l3.34375 0l1.203125 8.15625l0.578125 -8.15625l3.34375 0zm4.4562683 -2.65625l0 14.75l-3.796875 0l0 -14.75l3.796875 0zm9.641678 8.921875l-4.75 0l0 2.609375q0 0.828125 0.109375 1.0625q0.125 0.234375 0.453125 0.234375q0.421875 0 0.5625 -0.3125q0.140625 -0.3125 0.140625 -1.21875l0 -1.59375l3.484375 0l0 0.890625q0 1.125 -0.140625 1.734375q-0.140625 0.59375 -0.65625 1.28125q-0.515625 0.671875 -1.3125 1.015625q-0.796875 0.34375 -2.0 0.34375q-1.171875 0 -2.0625 -0.328125q-0.890625 -0.34375 -1.390625 -0.921875q-0.5 -0.59375 -0.6875 -1.296875q-0.1875 -0.71875 -0.1875 -2.0625l0 -3.53125q0 -1.578125 0.421875 -2.484375q0.4375 -0.921875 1.40625 -1.40625q0.984375 -0.5 2.25 -0.5q1.546875 0 2.546875 0.59375q1.015625 0.59375 1.40625 1.5625q0.40625 0.96875 0.40625 2.71875l0 1.609375zm-3.6875 -1.96875l0 -0.890625q0 -0.9375 -0.109375 -1.203125q-0.09375 -0.28125 -0.390625 -0.28125q-0.390625 0 -0.484375 0.234375q-0.078125 0.234375 -0.078125 1.25l0 0.890625l1.0625 0z" fill-rule="nonzero"/><path fill="#000000" d="m61.7237 70.64322l2.1875 14.75l-3.921875 0l-0.1875 -2.65625l-1.375 0l-0.234375 2.65625l-3.96875 0l1.953125 -14.75l5.546875 0zm-2.03125 9.484375q-0.296875 -2.5 -0.59375 -6.1875q-0.578125 4.234375 -0.71875 6.1875l1.3125 0zm8.645752 -8.4375l0 1.90625l1.0 0l0 1.90625l-1.0 0l0 6.46875q0 1.203125 0.125 1.34375q0.125 0.125 1.03125 0.125l0 1.953125l-1.484375 0q-1.265625 0 -1.796875 -0.09375q-0.53125 -0.109375 -0.953125 -0.484375q-0.40625 -0.390625 -0.515625 -0.875q-0.09375 -0.484375 -0.09375 -2.296875l0 -6.140625l-0.796875 0l0 -1.90625l0.796875 0l0 -1.90625l3.6875 0zm5.684326 0l0 1.90625l1.0 0l0 1.90625l-1.0 0l0 6.46875q0 1.203125 0.125 1.34375q0.125 0.125 1.03125 0.125l0 1.953125l-1.484375 0q-1.265625 0 -1.796875 -0.09375q-0.53125 -0.109375 -0.953125 -0.484375q-0.40625 -0.390625 -0.515625 -0.875q-0.09375 -0.484375 -0.09375 -2.296875l0 -6.140625l-0.796875 0l0 -1.90625l0.796875 0l0 -1.90625l3.6875 0zm5.496826 1.609375l-0.15625 1.59375q0.796875 -1.703125 2.328125 -1.8125l0 4.265625q-1.015625 0 -1.484375 0.28125q-0.46875 0.265625 -0.578125 0.75q-0.109375 0.484375 -0.109375 2.25l0 4.765625l-3.6875 0l0 -12.09375l3.6875 0zm6.7866364 -2.65625l0 1.921875l-3.796875 0l0 -1.921875l3.796875 0zm0 2.65625l0 12.09375l-3.796875 0l0 -12.09375l3.796875 0zm5.001053 -2.65625l0 3.484375q0.453125 -0.515625 1.0 -0.78125q0.5625 -0.265625 1.21875 -0.265625q0.765625 0 1.3125 0.25q0.5625 0.234375 0.84375 0.65625q0.296875 0.421875 0.359375 0.84375q0.0625 0.40625 0.0625 1.75l0 5.4375q0 1.328125 -0.1875 1.984375q-0.171875 0.65625 -0.828125 1.140625q-0.65625 0.46875 -1.5625 0.46875q-0.640625 0 -1.203125 -0.28125q-0.5625 -0.28125 -1.015625 -0.84375l-0.25 0.90625l-3.4375 0l0 -14.75l3.6875 0zm1.109375 6.09375q0 -0.9375 -0.125 -1.21875q-0.109375 -0.296875 -0.453125 -0.296875q-0.34375 0 -0.4375 0.25q-0.09375 0.25 -0.09375 1.265625l0 5.21875q0 0.96875 0.109375 1.25q0.109375 0.265625 0.453125 0.265625q0.34375 0 0.4375 -0.28125q0.109375 -0.28125 0.109375 -1.359375l0 -5.09375zm13.317505 -3.4375l0 12.09375l-3.734375 0l0.0625 -1.0q-0.390625 0.609375 -0.953125 0.921875q-0.546875 0.296875 -1.28125 0.296875q-0.828125 0 -1.375 -0.28125q-0.546875 -0.296875 -0.8125 -0.78125q-0.25 -0.484375 -0.328125 -1.0q-0.0625 -0.53125 -0.0625 -2.09375l0 -8.15625l3.6875 0l0 8.234375q0 1.40625 0.078125 1.671875q0.09375 0.265625 0.484375 0.265625q0.40625 0 0.484375 -0.265625q0.078125 -0.28125 0.078125 -1.765625l0 -8.140625l3.671875 0zm5.200287 -1.609375l0 1.90625l1.0 0l0 1.90625l-1.0 0l0 6.46875q0 1.203125 0.125 1.34375q0.125 0.125 1.03125 0.125l0 1.953125l-1.484375 0q-1.265625 0 -1.796875 -0.09375q-0.53125 -0.109375 -0.953125 -0.484375q-0.40625 -0.390625 -0.515625 -0.875q-0.09375 -0.484375 -0.09375 -2.296875l0 -6.140625l-0.796875 0l0 -1.90625l0.796875 0l0 -1.90625l3.6875 0zm10.137451 7.875l-4.75 0l0 2.609375q0 0.828125 0.109375 1.0625q0.125 0.234375 0.453125 0.234375q0.421875 0 0.5625 -0.3125q0.140625 -0.3125 0.140625 -1.21875l0 -1.59375l3.484375 0l0 0.890625q0 1.125 -0.140625 1.734375q-0.140625 0.59375 -0.65625 1.28125q-0.515625 0.671875 -1.3125 1.015625q-0.796875 0.34375 -2.0 0.34375q-1.171875 0 -2.0625 -0.328125q-0.890625 -0.34375 -1.390625 -0.921875q-0.5 -0.59375 -0.6875 -1.296875q-0.1875 -0.71875 -0.1875 -2.0625l0 -3.53125q0 -1.578125 0.421875 -2.484375q0.4375 -0.921875 1.40625 -1.40625q0.984375 -0.5 2.25 -0.5q1.546875 0 2.546875 0.59375q1.015625 0.59375 1.40625 1.5625q0.40625 0.96875 0.40625 2.71875l0 1.609375zm-3.6875 -1.96875l0 -0.890625q0 -0.9375 -0.109375 -1.203125q-0.09375 -0.28125 -0.390625 -0.28125q-0.390625 0 -0.484375 0.234375q-0.078125 0.234375 -0.078125 1.25l0 0.890625l1.0625 0z" fill-rule="nonzero"/><path fill="#fff2cc" d="m36.76671 201.60104l102.42459 0c4.0180054 0 7.8714447 -1.5961456 10.712601 -4.4373016c2.841156 -2.841156 4.4373016 -6.6945953 4.4373016 -10.712601l0 -75.74773c0 -6.1035156E-4 -4.8828125E-4 -0.0011062622 -0.0010986328 -0.0011062622l-132.7233 0.0011062622l0 0c-6.122589E-4 0 -0.0011062622 4.9591064E-4 -0.0011062622 0.0011062622l0.0011062622 75.74662l0 0c0 8.367065 6.7828445 15.149902 15.14991 15.149902z" fill-rule="evenodd"/><path stroke="#000000" stroke-width="1.0" stroke-linejoin="round" stroke-linecap="butt" d="m36.76671 201.60104l102.42459 0c4.0180054 0 7.8714447 -1.5961456 10.712601 -4.4373016c2.841156 -2.841156 4.4373016 -6.6945953 4.4373016 -10.712601l0 -75.74773c0 -6.1035156E-4 -4.8828125E-4 -0.0011062622 -0.0010986328 -0.0011062622l-132.7233 0.0011062622l0 0c-6.122589E-4 0 -0.0011062622 4.9591064E-4 -0.0011062622 0.0011062622l0.0011062622 75.74662l0 0c0 8.367065 6.7828445 15.149902 15.14991 15.149902z" fill-rule="evenodd"/><path fill="#b7b7b7" d="m252.76671 19.805775l102.424576 0c4.0180054 0 7.87146 1.5961456 10.712616 4.4373055c2.841156 2.8411598 4.437317 6.6945972 4.437317 10.7126045l0 75.74773c0 6.1035156E-4 -5.187988E-4 0.0011062622 -0.0011291504 0.0011062622l-132.7233 -0.0011062622l0 0c-6.1035156E-4 0 -0.0010986328 -4.9591064E-4 -0.0010986328 -0.0011062622l0.0010986328 -75.74663l0 0c0 -8.367065 6.782852 -15.14991 15.149918 -15.14991z" fill-rule="evenodd"/><path stroke="#000000" stroke-width="1.0" stroke-linejoin="round" stroke-linecap="butt" d="m252.76671 19.805775l102.424576 0c4.0180054 0 7.87146 1.5961456 10.712616 4.4373055c2.841156 2.8411598 4.437317 6.6945972 4.437317 10.7126045l0 75.74773c0 6.1035156E-4 -5.187988E-4 0.0011062622 -0.0011291504 0.0011062622l-132.7233 -0.0011062622l0 0c-6.1035156E-4 0 -0.0010986328 -4.9591064E-4 -0.0010986328 -0.0011062622l0.0010986328 -75.74663l0 0c0 -8.367065 6.782852 -15.14991 15.149918 -15.14991z" fill-rule="evenodd"/><path fill="#000000" d="m300.7295 59.64322l0 14.75l-3.828125 0l0 -14.75l3.828125 0zm1.5464783 0l2.875 0q2.765625 0 3.75 0.265625q0.984375 0.25 1.484375 0.828125q0.515625 0.578125 0.640625 1.296875q0.125 0.71875 0.125 2.8125l0 5.171875q0 1.984375 -0.1875 2.65625q-0.171875 0.65625 -0.640625 1.046875q-0.46875 0.375 -1.15625 0.53125q-0.671875 0.140625 -2.046875 0.140625l-4.84375 0l0 -14.75zm3.828125 2.53125l0 9.703125q0.828125 0 1.015625 -0.328125q0.203125 -0.34375 0.203125 -1.828125l0 -5.71875q0 -1.0 -0.0625 -1.28125q-0.0625 -0.28125 -0.296875 -0.40625q-0.21875 -0.140625 -0.859375 -0.140625z" fill-rule="nonzero"/><path fill="#fff2cc" d="m252.76671 201.60104l102.424576 0c4.0180054 0 7.87146 -1.5961456 10.712616 -4.4373016c2.841156 -2.841156 4.437317 -6.6945953 4.437317 -10.712601l0 -75.74773c0 -6.1035156E-4 -5.187988E-4 -0.0011062622 -0.0011291504 -0.0011062622l-132.7233 0.0011062622l0 0c-6.1035156E-4 0 -0.0010986328 4.9591064E-4 -0.0010986328 0.0011062622l0.0010986328 75.74662l0 0c0 8.367065 6.782852 15.149902 15.149918 15.149902z" fill-rule="evenodd"/><path stroke="#000000" stroke-width="1.0" stroke-linejoin="round" stroke-linecap="butt" d="m252.76671 201.60104l102.424576 0c4.0180054 0 7.87146 -1.5961456 10.712616 -4.4373016c2.841156 -2.841156 4.437317 -6.6945953 4.437317 -10.712601l0 -75.74773c0 -6.1035156E-4 -5.187988E-4 -0.0011062622 -0.0011291504 -0.0011062622l-132.7233 0.0011062622l0 0c-6.1035156E-4 0 -0.0010986328 4.9591064E-4 -0.0010986328 0.0011062622l0.0010986328 75.74662l0 0c0 8.367065 6.782852 15.149902 15.149918 15.149902z" fill-rule="evenodd"/><path fill="#b7b7b7" d="m468.7667 19.805775l102.42459 0c4.0180054 0 7.87146 1.5961456 10.7126465 4.4373055c2.8411255 2.8411598 4.437256 6.6945972 4.437256 10.7126045l0 75.74773c0 6.1035156E-4 -4.8828125E-4 0.0011062622 -0.0010986328 0.0011062622l-132.7233 -0.0011062622l0 0c-6.1035156E-4 0 -0.0010986328 -4.9591064E-4 -0.0010986328 -0.0011062622l0.0010986328 -75.74663l0 0c0 -8.367065 6.7828674 -15.14991 15.149902 -15.14991z" fill-rule="evenodd"/><path stroke="#000000" stroke-width="1.0" stroke-linejoin="round" stroke-linecap="butt" d="m468.7667 19.805775l102.42459 0c4.0180054 0 7.87146 1.5961456 10.7126465 4.4373055c2.8411255 2.8411598 4.437256 6.6945972 4.437256 10.7126045l0 75.74773c0 6.1035156E-4 -4.8828125E-4 0.0011062622 -0.0010986328 0.0011062622l-132.7233 -0.0011062622l0 0c-6.1035156E-4 0 -0.0010986328 -4.9591064E-4 -0.0010986328 -0.0011062622l0.0010986328 -75.74663l0 0c0 -8.367065 6.7828674 -15.14991 15.149902 -15.14991z" fill-rule="evenodd"/><path fill="#000000" d="m508.4954 44.08072l-3.828125 0l0 -2.578125q0 -1.109375 -0.125 -1.390625q-0.125 -0.28125 -0.546875 -0.28125q-0.46875 0 -0.609375 0.34375q-0.125 0.328125 -0.125 1.453125l0 6.84375q0 1.078125 0.125 1.40625q0.140625 0.328125 0.578125 0.328125q0.4375 0 0.5625 -0.328125q0.140625 -0.328125 0.140625 -1.53125l0 -1.859375l3.828125 0l0 0.578125q0 2.28125 -0.328125 3.25q-0.3125 0.953125 -1.421875 1.671875q-1.109375 0.71875 -2.734375 0.71875q-1.6875 0 -2.78125 -0.609375q-1.09375 -0.609375 -1.453125 -1.6875q-0.34375 -1.078125 -0.34375 -3.25l0 -4.3125q0 -1.59375 0.109375 -2.390625q0.109375 -0.796875 0.640625 -1.53125q0.546875 -0.734375 1.5 -1.15625q0.96875 -0.4375 2.21875 -0.4375q1.703125 0 2.796875 0.65625q1.109375 0.65625 1.453125 1.640625q0.34375 0.984375 0.34375 3.046875l0 1.40625zm5.0645447 -6.4375l0 14.75l-3.796875 0l0 -14.75l3.796875 0zm4.5947876 7.34375l-3.453125 0l0 -0.8125q0 -1.40625 0.328125 -2.15625q0.328125 -0.765625 1.296875 -1.34375q0.984375 -0.59375 2.53125 -0.59375q1.875 0 2.8125 0.671875q0.953125 0.65625 1.140625 1.625q0.203125 0.953125 0.203125 3.953125l0 6.0625l-3.59375 0l0 -1.078125q-0.328125 0.65625 -0.859375 0.984375q-0.53125 0.3125 -1.28125 0.3125q-0.953125 0 -1.765625 -0.53125q-0.8125 -0.546875 -0.8125 -2.390625l0 -0.984375q0 -1.359375 0.421875 -1.84375q0.4375 -0.5 2.140625 -1.15625q1.8125 -0.703125 1.9375 -0.953125q0.125 -0.25 0.125 -1.0q0 -0.953125 -0.140625 -1.234375q-0.140625 -0.296875 -0.46875 -0.296875q-0.375 0 -0.46875 0.25q-0.09375 0.234375 -0.09375 1.25l0 1.265625zm1.171875 1.65625q-0.875 0.65625 -1.03125 1.09375q-0.140625 0.421875 -0.140625 1.25q0 0.9375 0.125 1.21875q0.125 0.265625 0.5 0.265625q0.34375 0 0.4375 -0.203125q0.109375 -0.21875 0.109375 -1.140625l0 -2.484375zm12.463501 -2.46875l-3.265625 0l0 -0.65625q0 -0.84375 -0.09375 -1.0625q-0.09375 -0.234375 -0.46875 -0.234375q-0.3125 0 -0.46875 0.21875q-0.15625 0.203125 -0.15625 0.609375q0 0.546875 0.078125 0.8125q0.078125 0.265625 0.453125 0.578125q0.390625 0.296875 1.59375 0.890625q1.609375 0.78125 2.109375 1.484375q0.5 0.6875 0.5 2.0q0 1.484375 -0.390625 2.234375q-0.375 0.75 -1.28125 1.15625q-0.890625 0.40625 -2.15625 0.40625q-1.40625 0 -2.40625 -0.4375q-0.984375 -0.4375 -1.359375 -1.1875q-0.375 -0.75 -0.375 -2.25l0 -0.59375l3.265625 0l0 0.765625q0 0.984375 0.109375 1.28125q0.125 0.28125 0.5 0.28125q0.390625 0 0.546875 -0.1875q0.15625 -0.203125 0.15625 -0.828125q0 -0.875 -0.203125 -1.09375q-0.21875 -0.21875 -2.140625 -1.28125q-1.625 -0.921875 -1.984375 -1.65625q-0.359375 -0.75 -0.359375 -1.765625q0 -1.453125 0.375 -2.140625q0.390625 -0.6875 1.3125 -1.0625q0.921875 -0.375 2.125 -0.375q1.203125 0 2.046875 0.3125q0.84375 0.296875 1.296875 0.8125q0.453125 0.5 0.546875 0.921875q0.09375 0.421875 0.09375 1.34375l0 0.703125zm8.781555 0l-3.265625 0l0 -0.65625q0 -0.84375 -0.09375 -1.0625q-0.09375 -0.234375 -0.46875 -0.234375q-0.3125 0 -0.46875 0.21875q-0.15625 0.203125 -0.15625 0.609375q0 0.546875 0.078125 0.8125q0.078125 0.265625 0.453125 0.578125q0.390625 0.296875 1.59375 0.890625q1.609375 0.78125 2.109375 1.484375q0.5 0.6875 0.5 2.0q0 1.484375 -0.390625 2.234375q-0.375 0.75 -1.28125 1.15625q-0.890625 0.40625 -2.15625 0.40625q-1.40625 0 -2.40625 -0.4375q-0.984375 -0.4375 -1.359375 -1.1875q-0.375 -0.75 -0.375 -2.25l0 -0.59375l3.265625 0l0 0.765625q0 0.984375 0.109375 1.28125q0.125 0.28125 0.5 0.28125q0.390625 0 0.546875 -0.1875q0.15625 -0.203125 0.15625 -0.828125q0 -0.875 -0.203125 -1.09375q-0.21875 -0.21875 -2.140625 -1.28125q-1.625 -0.921875 -1.984375 -1.65625q-0.359375 -0.75 -0.359375 -1.765625q0 -1.453125 0.375 -2.140625q0.390625 -0.6875 1.3125 -1.0625q0.921875 -0.375 2.125 -0.375q1.203125 0 2.046875 0.3125q0.84375 0.296875 1.296875 0.8125q0.453125 0.5 0.546875 0.921875q0.09375 0.421875 0.09375 1.34375l0 0.703125z" fill-rule="nonzero"/><path fill="#000000" d="m468.46524 59.64322l3.859375 0q1.5625 0 2.40625 0.25q0.84375 0.25 1.265625 0.71875q0.4375 0.453125 0.578125 1.125q0.15625 0.65625 0.15625 2.03125l0 1.28125q0 1.421875 -0.296875 2.078125q-0.296875 0.640625 -1.078125 0.984375q-0.765625 0.34375 -2.03125 0.34375l-1.03125 0l0 5.9375l-3.828125 0l0 -14.75zm3.828125 2.53125l0 3.75q0.171875 0 0.28125 0q0.53125 0 0.734375 -0.25q0.21875 -0.265625 0.21875 -1.078125l0 -1.21875q0 -0.75 -0.25 -0.96875q-0.234375 -0.234375 -0.984375 -0.234375zm13.755188 6.390625l-4.75 0l0 2.609375q0 0.828125 0.109375 1.0625q0.125 0.234375 0.453125 0.234375q0.421875 0 0.5625 -0.3125q0.140625 -0.3125 0.140625 -1.21875l0 -1.59375l3.484375 0l0 0.890625q0 1.125 -0.140625 1.734375q-0.140625 0.59375 -0.65625 1.28125q-0.515625 0.671875 -1.3125 1.015625q-0.796875 0.34375 -2.0 0.34375q-1.171875 0 -2.0625 -0.328125q-0.890625 -0.34375 -1.390625 -0.921875q-0.5 -0.59375 -0.6875 -1.296875q-0.1875 -0.71875 -0.1875 -2.0625l0 -3.53125q0 -1.578125 0.421875 -2.484375q0.4375 -0.921875 1.40625 -1.40625q0.984375 -0.5 2.25 -0.5q1.546875 0 2.546875 0.59375q1.015625 0.59375 1.40625 1.5625q0.40625 0.96875 0.40625 2.71875l0 1.609375zm-3.6875 -1.96875l0 -0.890625q0 -0.9375 -0.109375 -1.203125q-0.09375 -0.28125 -0.390625 -0.28125q-0.390625 0 -0.484375 0.234375q-0.078125 0.234375 -0.078125 1.25l0 0.890625l1.0625 0zm12.412628 -0.421875l-3.265625 0l0 -0.65625q0 -0.84375 -0.09375 -1.0625q-0.09375 -0.234375 -0.46875 -0.234375q-0.3125 0 -0.46875 0.21875q-0.15625 0.203125 -0.15625 0.609375q0 0.546875 0.078125 0.8125q0.078125 0.265625 0.453125 0.578125q0.390625 0.296875 1.59375 0.890625q1.609375 0.78125 2.109375 1.484375q0.5 0.6875 0.5 2.0q0 1.484375 -0.390625 2.234375q-0.375 0.75 -1.28125 1.15625q-0.890625 0.40625 -2.15625 0.40625q-1.40625 0 -2.40625 -0.4375q-0.984375 -0.4375 -1.359375 -1.1875q-0.375 -0.75 -0.375 -2.25l0 -0.59375l3.265625 0l0 0.765625q0 0.984375 0.109375 1.28125q0.125 0.28125 0.5 0.28125q0.390625 0 0.546875 -0.1875q0.15625 -0.203125 0.15625 -0.828125q0 -0.875 -0.203125 -1.09375q-0.21875 -0.21875 -2.140625 -1.28125q-1.625 -0.921875 -1.984375 -1.65625q-0.359375 -0.75 -0.359375 -1.765625q0 -1.453125 0.375 -2.140625q0.390625 -0.6875 1.3125 -1.0625q0.921875 -0.375 2.125 -0.375q1.203125 0 2.046875 0.3125q0.84375 0.296875 1.296875 0.8125q0.453125 0.5 0.546875 0.921875q0.09375 0.421875 0.09375 1.34375l0 0.703125zm9.687805 -3.875l0 12.09375l-3.734375 0l0.0625 -1.0q-0.390625 0.609375 -0.953125 0.921875q-0.546875 0.296875 -1.28125 0.296875q-0.828125 0 -1.375 -0.28125q-0.546875 -0.296875 -0.8125 -0.78125q-0.25 -0.484375 -0.328125 -1.0q-0.0625 -0.53125 -0.0625 -2.09375l0 -8.15625l3.6875 0l0 8.234375q0 1.40625 0.078125 1.671875q0.09375 0.265625 0.484375 0.265625q0.40625 0 0.484375 -0.265625q0.078125 -0.28125 0.078125 -1.765625l0 -8.140625l3.671875 0zm9.700317 -2.65625l0 14.75l-3.6875305 0l0 -0.875q-0.53125 0.546875 -1.109375 0.828125q-0.578125 0.265625 -1.21875 0.265625q-0.859375 0 -1.484375 -0.453125q-0.625 -0.453125 -0.8125 -1.046875q-0.171875 -0.59375 -0.171875 -1.921875l0 -5.65625q0 -1.390625 0.171875 -1.96875q0.1875 -0.59375 0.8125 -1.03125q0.640625 -0.453125 1.53125 -0.453125q0.6875 0 1.25 0.25q0.5625 0.25 1.03125 0.734375l0 -3.421875l3.6875305 0zm-3.6875305 5.703125q0 -0.65625 -0.109375 -0.890625q-0.109375 -0.234375 -0.453125 -0.234375q-0.328125 0 -0.4375 0.21875q-0.109375 0.203125 -0.109375 0.90625l0 5.921875q0 0.734375 0.109375 0.96875q0.109375 0.234375 0.40625 0.234375q0.359375 0 0.46875 -0.25q0.125 -0.265625 0.125 -1.28125l0 -5.59375zm13.33316 1.203125l0 2.96875q0 1.625 -0.171875 2.390625q-0.15625 0.75 -0.703125 1.421875q-0.53125 0.65625 -1.375 0.96875q-0.84375 0.3125 -1.9375 0.3125q-1.21875 0 -2.0625 -0.265625q-0.84375 -0.265625 -1.3125 -0.8125q-0.46875 -0.546875 -0.671875 -1.3125q-0.203125 -0.765625 -0.203125 -2.3125l0 -3.09375q0 -1.6875 0.359375 -2.625q0.375 -0.953125 1.3125 -1.53125q0.953125 -0.578125 2.421875 -0.578125q1.25 0 2.125 0.375q0.890625 0.375 1.375 0.96875q0.484375 0.578125 0.65625 1.21875q0.1875 0.625 0.1875 1.90625zm-3.6875 -0.90625q0 -0.9375 -0.109375 -1.171875q-0.09375 -0.25 -0.421875 -0.25q-0.3125 0 -0.421875 0.25q-0.109375 0.234375 -0.109375 1.171875l0 5.453125q0 0.859375 0.109375 1.125q0.109375 0.25 0.421875 0.25q0.328125 0 0.421875 -0.234375q0.109375 -0.234375 0.109375 -1.015625l0 -5.578125zm9.412598 1.4375l0 2.546875l-4.84375 0l0 -2.546875l4.84375 0zm10.039917 -1.0l-3.828125 0l0 -2.578125q0 -1.109375 -0.125 -1.390625q-0.125 -0.28125 -0.546875 -0.28125q-0.46875 0 -0.609375 0.34375q-0.125 0.328125 -0.125 1.453125l0 6.84375q0 1.078125 0.125 1.40625q0.140625 0.328125 0.578125 0.328125q0.4375 0 0.5625 -0.328125q0.140625 -0.328125 0.140625 -1.53125l0 -1.859375l3.828125 0l0 0.578125q0 2.28125 -0.328125 3.25q-0.3125 0.953125 -1.421875 1.671875q-1.109375 0.71875 -2.734375 0.71875q-1.6875 0 -2.78125 -0.609375q-1.09375 -0.609375 -1.453125 -1.6875q-0.34375 -1.078125 -0.34375 -3.25l0 -4.3125q0 -1.59375 0.109375 -2.390625q0.109375 -0.796875 0.640625 -1.53125q0.546875 -0.734375 1.5 -1.15625q0.96875 -0.4375 2.21875 -0.4375q1.703125 0 2.796875 0.65625q1.109375 0.65625 1.453125 1.640625q0.34375 0.984375 0.34375 3.046875l0 1.40625zm5.064575 -6.4375l0 14.75l-3.796875 0l0 -14.75l3.796875 0zm4.5947876 7.34375l-3.453125 0l0 -0.8125q0 -1.40625 0.328125 -2.15625q0.328125 -0.765625 1.296875 -1.34375q0.984375 -0.59375 2.53125 -0.59375q1.875 0 2.8125 0.671875q0.953125 0.65625 1.140625 1.625q0.203125 0.953125 0.203125 3.953125l0 6.0625l-3.59375 0l0 -1.078125q-0.328125 0.65625 -0.859375 0.984375q-0.53125 0.3125 -1.28125 0.3125q-0.953125 0 -1.765625 -0.53125q-0.8125 -0.546875 -0.8125 -2.390625l0 -0.984375q0 -1.359375 0.421875 -1.84375q0.4375 -0.5 2.140625 -1.15625q1.8125 -0.703125 1.9375 -0.953125q0.125 -0.25 0.125 -1.0q0 -0.953125 -0.140625 -1.234375q-0.140625 -0.296875 -0.46875 -0.296875q-0.375 0 -0.46875 0.25q-0.09375 0.234375 -0.09375 1.25l0 1.265625zm1.171875 1.65625q-0.875 0.65625 -1.03125 1.09375q-0.140625 0.421875 -0.140625 1.25q0 0.9375 0.125 1.21875q0.125 0.265625 0.5 0.265625q0.34375 0 0.4375 -0.203125q0.109375 -0.21875 0.109375 -1.140625l0 -2.484375zm12.463501 -2.46875l-3.265625 0l0 -0.65625q0 -0.84375 -0.09375 -1.0625q-0.09375 -0.234375 -0.46875 -0.234375q-0.3125 0 -0.46875 0.21875q-0.15625 0.203125 -0.15625 0.609375q0 0.546875 0.078125 0.8125q0.078125 0.265625 0.453125 0.578125q0.390625 0.296875 1.59375 0.890625q1.609375 0.78125 2.109375 1.484375q0.5 0.6875 0.5 2.0q0 1.484375 -0.390625 2.234375q-0.375 0.75 -1.28125 1.15625q-0.890625 0.40625 -2.15625 0.40625q-1.40625 0 -2.40625 -0.4375q-0.984375 -0.4375 -1.359375 -1.1875q-0.375 -0.75 -0.375 -2.25l0 -0.59375l3.265625 0l0 0.765625q0 0.984375 0.109375 1.28125q0.125 0.28125 0.5 0.28125q0.390625 0 0.546875 -0.1875q0.15625 -0.203125 0.15625 -0.828125q0 -0.875 -0.203125 -1.09375q-0.21875 -0.21875 -2.140625 -1.28125q-1.625 -0.921875 -1.984375 -1.65625q-0.359375 -0.75 -0.359375 -1.765625q0 -1.453125 0.375 -2.140625q0.390625 -0.6875 1.3125 -1.0625q0.921875 -0.375 2.125 -0.375q1.203125 0 2.046875 0.3125q0.84375 0.296875 1.296875 0.8125q0.453125 0.5 0.546875 0.921875q0.09375 0.421875 0.09375 1.34375l0 0.703125zm8.781555 0l-3.265625 0l0 -0.65625q0 -0.84375 -0.09375 -1.0625q-0.09375 -0.234375 -0.46875 -0.234375q-0.3125 0 -0.46875 0.21875q-0.15625 0.203125 -0.15625 0.609375q0 0.546875 0.078125 0.8125q0.078125 0.265625 0.453125 0.578125q0.390625 0.296875 1.59375 0.890625q1.609375 0.78125 2.109375 1.484375q0.5 0.6875 0.5 2.0q0 1.484375 -0.390625 2.234375q-0.375 0.75 -1.28125 1.15625q-0.890625 0.40625 -2.15625 0.40625q-1.40625 0 -2.40625 -0.4375q-0.984375 -0.4375 -1.359375 -1.1875q-0.375 -0.75 -0.375 -2.25l0 -0.59375l3.265625 0l0 0.765625q0 0.984375 0.109375 1.28125q0.125 0.28125 0.5 0.28125q0.390625 0 0.546875 -0.1875q0.15625 -0.203125 0.15625 -0.828125q0 -0.875 -0.203125 -1.09375q-0.21875 -0.21875 -2.140625 -1.28125q-1.625 -0.921875 -1.984375 -1.65625q-0.359375 -0.75 -0.359375 -1.765625q0 -1.453125 0.375 -2.140625q0.390625 -0.6875 1.3125 -1.0625q0.921875 -0.375 2.125 -0.375q1.203125 0 2.046875 0.3125q0.84375 0.296875 1.296875 0.8125q0.453125 0.5 0.546875 0.921875q0.09375 0.421875 0.09375 1.34375l0 0.703125z" fill-rule="nonzero"/><path fill="#000000" d="m489.33292 81.64323l2.1875 14.75l-3.921875 0l-0.1875 -2.65625l-1.375 0l-0.234375 2.65625l-3.96875 0l1.953125 -14.75l5.546875 0zm-2.03125 9.484375q-0.296875 -2.5 -0.59375 -6.1875q-0.578125 4.234375 -0.71875 6.1875l1.3125 0zm8.645752 -8.4375l0 1.90625l1.0 0l0 1.90625l-1.0 0l0 6.46875q0 1.203125 0.125 1.34375q0.125 0.125 1.03125 0.125l0 1.953125l-1.484375 0q-1.265625 0 -1.796875 -0.09375q-0.53125 -0.109375 -0.953125 -0.484375q-0.40625 -0.390625 -0.515625 -0.875q-0.09375 -0.484375 -0.09375 -2.296875l0 -6.140625l-0.796875 0l0 -1.90625l0.796875 0l0 -1.90625l3.6875 0zm5.684326 0l0 1.90625l1.0 0l0 1.90625l-1.0 0l0 6.46875q0 1.203125 0.125 1.34375q0.125 0.125 1.03125 0.125l0 1.953125l-1.484375 0q-1.265625 0 -1.796875 -0.09375q-0.53125 -0.109375 -0.953125 -0.484375q-0.40625 -0.390625 -0.515625 -0.875q-0.09375 -0.484375 -0.09375 -2.296875l0 -6.140625l-0.796875 0l0 -1.90625l0.796875 0l0 -1.90625l3.6875 0zm5.496826 1.609375l-0.15625 1.59375q0.796875 -1.703125 2.328125 -1.8125l0 4.265625q-1.015625 0 -1.484375 0.28125q-0.46875 0.265625 -0.578125 0.75q-0.109375 0.484375 -0.109375 2.25l0 4.765625l-3.6875 0l0 -12.09375l3.6875 0zm6.7866516 -2.65625l0 1.921875l-3.796875 0l0 -1.921875l3.796875 0zm0 2.65625l0 12.09375l-3.796875 0l0 -12.09375l3.796875 0zm5.0010376 -2.65625l0 3.484375q0.453125 -0.515625 1.0 -0.78125q0.5625 -0.265625 1.21875 -0.265625q0.765625 0 1.3125 0.25q0.5625 0.234375 0.84375 0.65625q0.296875 0.421875 0.359375 0.84375q0.0625 0.40625 0.0625 1.75l0 5.4375q0 1.328125 -0.1875 1.984375q-0.171875 0.65625 -0.828125 1.140625q-0.65625 0.46875 -1.5625 0.46875q-0.640625 0 -1.203125 -0.28125q-0.5625 -0.28125 -1.015625 -0.84375l-0.25 0.90625l-3.4375 0l0 -14.75l3.6875 0zm1.109375 6.09375q0 -0.9375 -0.125 -1.21875q-0.109375 -0.296875 -0.453125 -0.296875q-0.34375 0 -0.4375 0.25q-0.09375 0.25 -0.09375 1.265625l0 5.21875q0 0.96875 0.109375 1.25q0.109375 0.265625 0.453125 0.265625q0.34375 0 0.4375 -0.28125q0.109375 -0.28125 0.109375 -1.359375l0 -5.09375zm13.317505 -3.4375l0 12.09375l-3.734375 0l0.0625 -1.0q-0.390625 0.609375 -0.953125 0.921875q-0.546875 0.296875 -1.28125 0.296875q-0.828125 0 -1.375 -0.28125q-0.546875 -0.296875 -0.8125 -0.78125q-0.25 -0.484375 -0.328125 -1.0q-0.0625 -0.53125 -0.0625 -2.09375l0 -8.15625l3.6875 0l0 8.234375q0 1.40625 0.078125 1.671875q0.09375 0.265625 0.484375 0.265625q0.40625 0 0.484375 -0.265625q0.078125 -0.28125 0.078125 -1.765625l0 -8.140625l3.671875 0zm5.2003174 -1.609375l0 1.90625l1.0 0l0 1.90625l-1.0 0l0 6.46875q0 1.203125 0.125 1.34375q0.125 0.125 1.03125 0.125l0 1.953125l-1.484375 0q-1.265625 0 -1.796875 -0.09375q-0.53125 -0.109375 -0.953125 -0.484375q-0.40625 -0.390625 -0.515625 -0.875q-0.09375 -0.484375 -0.09375 -2.296875l0 -6.140625l-0.796875 0l0 -1.90625l0.796875 0l0 -1.90625l3.6875 0zm10.137451 7.875l-4.75 0l0 2.609375q0 0.828125 0.109375 1.0625q0.125 0.234375 0.453125 0.234375q0.421875 0 0.5625 -0.3125q0.140625 -0.3125 0.140625 -1.21875l0 -1.59375l3.484375 0l0 0.890625q0 1.125 -0.140625 1.734375q-0.140625 0.59375 -0.65625 1.28125q-0.515625 0.671875 -1.3125 1.015625q-0.796875 0.34375 -2.0 0.34375q-1.171875 0 -2.0625 -0.328125q-0.890625 -0.34375 -1.390625 -0.921875q-0.5 -0.59375 -0.6875 -1.296875q-0.1875 -0.71875 -0.1875 -2.0625l0 -3.53125q0 -1.578125 0.421875 -2.484375q0.4375 -0.921875 1.40625 -1.40625q0.984375 -0.5 2.25 -0.5q1.546875 0 2.546875 0.59375q1.015625 0.59375 1.40625 1.5625q0.40625 0.96875 0.40625 2.71875l0 1.609375zm-3.6875 -1.96875l0 -0.890625q0 -0.9375 -0.109375 -1.203125q-0.09375 -0.28125 -0.390625 -0.28125q-0.390625 0 -0.484375 0.234375q-0.078125 0.234375 -0.078125 1.25l0 0.890625l1.0625 0zm12.412598 -0.421875l-3.265625 0l0 -0.65625q0 -0.84375 -0.09375 -1.0625q-0.09375 -0.234375 -0.46875 -0.234375q-0.3125 0 -0.46875 0.21875q-0.15625 0.203125 -0.15625 0.609375q0 0.546875 0.078125 0.8125q0.078125 0.265625 0.453125 0.578125q0.390625 0.296875 1.59375 0.890625q1.609375 0.78125 2.109375 1.484375q0.5 0.6875 0.5 2.0q0 1.484375 -0.390625 2.234375q-0.375 0.75 -1.28125 1.15625q-0.890625 0.40625 -2.15625 0.40625q-1.40625 0 -2.40625 -0.4375q-0.984375 -0.4375 -1.359375 -1.1875q-0.375 -0.75 -0.375 -2.25l0 -0.59375l3.265625 0l0 0.765625q0 0.984375 0.109375 1.28125q0.125 0.28125 0.5 0.28125q0.390625 0 0.546875 -0.1875q0.15625 -0.203125 0.15625 -0.828125q0 -0.875 -0.203125 -1.09375q-0.21875 -0.21875 -2.140625 -1.28125q-1.625 -0.921875 -1.984375 -1.65625q-0.359375 -0.75 -0.359375 -1.765625q0 -1.453125 0.375 -2.140625q0.390625 -0.6875 1.3125 -1.0625q0.921875 -0.375 2.125 -0.375q1.203125 0 2.046875 0.3125q0.84375 0.296875 1.296875 0.8125q0.453125 0.5 0.546875 0.921875q0.09375 0.421875 0.09375 1.34375l0 0.703125z" fill-rule="nonzero"/><path fill="#fff2cc" d="m468.7667 201.60104l102.42459 0c4.0180054 0 7.87146 -1.5961456 10.7126465 -4.4373016c2.8411255 -2.841156 4.437256 -6.6945953 4.437256 -10.712601l0 -75.74773c0 -6.1035156E-4 -4.8828125E-4 -0.0011062622 -0.0010986328 -0.0011062622l-132.7233 0.0011062622l0 0c-6.1035156E-4 0 -0.0010986328 4.9591064E-4 -0.0010986328 0.0011062622l0.0010986328 75.74662l0 0c0 8.367065 6.7828674 15.149902 15.149902 15.149902z" fill-rule="evenodd"/><path stroke="#000000" stroke-width="1.0" stroke-linejoin="round" stroke-linecap="butt" d="m468.7667 201.60104l102.42459 0c4.0180054 0 7.87146 -1.5961456 10.7126465 -4.4373016c2.8411255 -2.841156 4.437256 -6.6945953 4.437256 -10.712601l0 -75.74773c0 -6.1035156E-4 -4.8828125E-4 -0.0011062622 -0.0010986328 -0.0011062622l-132.7233 0.0011062622l0 0c-6.1035156E-4 0 -0.0010986328 4.9591064E-4 -0.0010986328 0.0011062622l0.0010986328 75.74662l0 0c0 8.367065 6.7828674 15.149902 15.149902 15.149902z" fill-rule="evenodd"/><path fill="#b7b7b7" d="m684.7667 19.805775l102.42456 0c4.0180054 0 7.87146 1.5961456 10.7126465 4.4373055c2.8411255 2.8411598 4.437256 6.6945972 4.437256 10.7126045l0 75.74773c0 6.1035156E-4 -4.8828125E-4 0.0011062622 -0.0010986328 0.0011062622l-132.72327 -0.0011062622l0 0c-6.1035156E-4 0 -0.001159668 -4.9591064E-4 -0.001159668 -0.0011062622l0.001159668 -75.74663l0 0c0 -8.367065 6.782837 -15.14991 15.149902 -15.14991z" fill-rule="evenodd"/><path stroke="#000000" stroke-width="1.0" stroke-linejoin="round" stroke-linecap="butt" d="m684.7667 19.805775l102.42456 0c4.0180054 0 7.87146 1.5961456 10.7126465 4.4373055c2.8411255 2.8411598 4.437256 6.6945972 4.437256 10.7126045l0 75.74773c0 6.1035156E-4 -4.8828125E-4 0.0011062622 -0.0010986328 0.0011062622l-132.72327 -0.0011062622l0 0c-6.1035156E-4 0 -0.001159668 -4.9591064E-4 -0.001159668 -0.0011062622l0.001159668 -75.74663l0 0c0 -8.367065 6.782837 -15.14991 15.149902 -15.14991z" fill-rule="evenodd"/><path fill="#000000" d="m705.86346 59.64322l6.390625 0l0 2.953125l-2.5625 0l0 2.796875l2.40625 0l0 2.8125l-2.40625 0l0 3.234375l2.828125 0l0 2.953125l-6.65625 0l0 -14.75zm11.439636 0l0 14.75l-3.796875 0l0 -14.75l3.796875 0zm9.641724 8.921875l-4.75 0l0 2.609375q0 0.828125 0.109375 1.0625q0.125 0.234375 0.453125 0.234375q0.421875 0 0.5625 -0.3125q0.140625 -0.3125 0.140625 -1.21875l0 -1.59375l3.484375 0l0 0.890625q0 1.125 -0.140625 1.734375q-0.140625 0.59375 -0.65625 1.28125q-0.515625 0.671875 -1.3125 1.015625q-0.796875 0.34375 -2.0 0.34375q-1.171875 0 -2.0625 -0.328125q-0.890625 -0.34375 -1.390625 -0.921875q-0.5 -0.59375 -0.6875 -1.296875q-0.1875 -0.71875 -0.1875 -2.0625l0 -3.53125q0 -1.578125 0.421875 -2.484375q0.4375 -0.921875 1.40625 -1.40625q0.984375 -0.5 2.25 -0.5q1.546875 0 2.546875 0.59375q1.015625 0.59375 1.40625 1.5625q0.40625 0.96875 0.40625 2.71875l0 1.609375zm-3.6875 -1.96875l0 -0.890625q0 -0.9375 -0.109375 -1.203125q-0.09375 -0.28125 -0.390625 -0.28125q-0.390625 0 -0.484375 0.234375q-0.078125 0.234375 -0.078125 1.25l0 0.890625l1.0625 0zm8.537598 -4.296875l-0.0625 1.15625q0.421875 -0.6875 1.015625 -1.03125q0.59375 -0.34375 1.34375 -0.34375q1.484375 0 2.328125 1.375q0.453125 -0.6875 1.03125 -1.03125q0.59375 -0.34375 1.3125 -0.34375q0.9375 0 1.546875 0.46875q0.609375 0.453125 0.78125 1.109375q0.1875 0.65625 0.1875 2.140625l0 8.59375l-3.578125 0l0 -7.875q0 -1.546875 -0.109375 -1.921875q-0.09375 -0.375 -0.484375 -0.375q-0.390625 0 -0.515625 0.375q-0.109375 0.359375 -0.109375 1.921875l0 7.875l-3.5625 0l0 -7.671875q0 -1.78125 -0.09375 -2.140625q-0.078125 -0.359375 -0.46875 -0.359375q-0.25 0 -0.421875 0.1875q-0.171875 0.1875 -0.1875 0.46875q-0.015625 0.265625 -0.015625 1.140625l0 8.375l-3.578125 0l0 -12.09375l3.640625 0zm19.071411 6.265625l-4.75 0l0 2.609375q0 0.828125 0.109375 1.0625q0.125 0.234375 0.453125 0.234375q0.421875 0 0.5625 -0.3125q0.140625 -0.3125 0.140625 -1.21875l0 -1.59375l3.484375 0l0 0.890625q0 1.125 -0.140625 1.734375q-0.140625 0.59375 -0.65625 1.28125q-0.515625 0.671875 -1.3125 1.015625q-0.796875 0.34375 -2.0 0.34375q-1.171875 0 -2.0625 -0.328125q-0.890625 -0.34375 -1.390625 -0.921875q-0.5 -0.59375 -0.6875 -1.296875q-0.1875 -0.71875 -0.1875 -2.0625l0 -3.53125q0 -1.578125 0.421875 -2.484375q0.4375 -0.921875 1.40625 -1.40625q0.984375 -0.5 2.25 -0.5q1.546875 0 2.546875 0.59375q1.015625 0.59375 1.40625 1.5625q0.40625 0.96875 0.40625 2.71875l0 1.609375zm-3.6875 -1.96875l0 -0.890625q0 -0.9375 -0.109375 -1.203125q-0.09375 -0.28125 -0.390625 -0.28125q-0.390625 0 -0.484375 0.234375q-0.078125 0.234375 -0.078125 1.25l0 0.890625l1.0625 0zm8.647034 -4.296875l-0.0625 1.109375q0.390625 -0.65625 0.96875 -0.984375q0.578125 -0.34375 1.34375 -0.34375q0.9375 0 1.53125 0.453125q0.609375 0.4375 0.78125 1.125q0.171875 0.671875 0.171875 2.265625l0 8.46875l-3.671875 0l0 -8.375q0 -1.25 -0.09375 -1.515625q-0.078125 -0.28125 -0.453125 -0.28125q-0.390625 0 -0.484375 0.328125q-0.09375 0.3125 -0.09375 1.671875l0 8.171875l-3.6875 0l0 -12.09375l3.75 0zm9.881287 -1.609375l0 1.90625l1.0 0l0 1.90625l-1.0 0l0 6.46875q0 1.203125 0.125 1.34375q0.125 0.125 1.03125 0.125l0 1.953125l-1.484375 0q-1.265625 0 -1.796875 -0.09375q-0.53125 -0.109375 -0.953125 -0.484375q-0.40625 -0.390625 -0.515625 -0.875q-0.09375 -0.484375 -0.09375 -2.296875l0 -6.140625l-0.796875 0l0 -1.90625l0.796875 0l0 -1.90625l3.6875 0z" fill-rule="nonzero"/><path fill="#fff2cc" d="m684.7667 201.60104l102.42456 0c4.0180054 0 7.87146 -1.5961456 10.7126465 -4.4373016c2.8411255 -2.841156 4.437256 -6.6945953 4.437256 -10.712601l0 -75.74773c0 -6.1035156E-4 -4.8828125E-4 -0.0011062622 -0.0010986328 -0.0011062622l-132.72327 0.0011062622l0 0c-6.1035156E-4 0 -0.001159668 4.9591064E-4 -0.001159668 0.0011062622l0.001159668 75.74662l0 0c0 8.367065 6.782837 15.149902 15.149902 15.149902z" fill-rule="evenodd"/><path stroke="#000000" stroke-width="1.0" stroke-linejoin="round" stroke-linecap="butt" d="m684.7667 201.60104l102.42456 0c4.0180054 0 7.87146 -1.5961456 10.7126465 -4.4373016c2.8411255 -2.841156 4.437256 -6.6945953 4.437256 -10.712601l0 -75.74773c0 -6.1035156E-4 -4.8828125E-4 -0.0011062622 -0.0010986328 -0.0011062622l-132.72327 0.0011062622l0 0c-6.1035156E-4 0 -0.001159668 4.9591064E-4 -0.001159668 0.0011062622l0.001159668 75.74662l0 0c0 8.367065 6.782837 15.149902 15.149902 15.149902z" fill-rule="evenodd"/><path fill="#000000" fill-opacity="0.0" d="m39.790028 128.89502l96.37796 0l0 56.377945l-96.37796 0z" fill-rule="evenodd"/><path fill="#000000" d="m61.660393 164.00398l0 -10.015625l-3.359375 1.046875l0 -2.515625l3.359375 -1.03125l3.359375 0l0 12.515625l-3.359375 0zm21.25151 -6.25q0 1.5 -0.578125 2.71875q-0.5625 1.203125 -1.5625 2.078125q-0.984375 0.859375 -2.34375 1.328125q-1.34375 0.46875 -2.890625 0.46875q-1.03125 0 -1.984375 -0.21875q-0.953125 -0.203125 -1.78125 -0.609375q-0.8125 -0.40625 -1.484375 -0.984375q-0.671875 -0.578125 -1.140625 -1.296875q-0.46875 -0.734375 -0.734375 -1.609375q-0.265625 -0.875 -0.265625 -1.875q0 -0.984375 0.265625 -1.859375q0.265625 -0.890625 0.734375 -1.609375q0.46875 -0.734375 1.140625 -1.3125q0.671875 -0.578125 1.484375 -0.984375q0.828125 -0.40625 1.78125 -0.609375q0.953125 -0.203125 1.984375 -0.203125q1.546875 0 2.890625 0.46875q1.359375 0.46875 2.34375 1.328125q1.0 0.859375 1.5625 2.078125q0.578125 1.203125 0.578125 2.703125zm-3.375 0q0 -0.953125 -0.328125 -1.671875q-0.328125 -0.734375 -0.890625 -1.234375q-0.546875 -0.5 -1.265625 -0.75q-0.71875 -0.265625 -1.515625 -0.265625q-0.796875 0 -1.53125 0.265625q-0.71875 0.25 -1.265625 0.75q-0.546875 0.5 -0.890625 1.234375q-0.328125 0.71875 -0.328125 1.671875q0 0.953125 0.328125 1.6875q0.34375 0.71875 0.890625 1.21875q0.546875 0.5 1.265625 0.765625q0.734375 0.25 1.53125 0.25q0.796875 0 1.515625 -0.25q0.71875 -0.265625 1.265625 -0.765625q0.5625 -0.5 0.890625 -1.21875q0.328125 -0.734375 0.328125 -1.6875zm20.300446 0q0 1.5 -0.578125 2.71875q-0.5625 1.203125 -1.5625 2.078125q-0.984375 0.859375 -2.34375 1.328125q-1.34375 0.46875 -2.890625 0.46875q-1.03125 0 -1.984375 -0.21875q-0.953125 -0.203125 -1.78125 -0.609375q-0.8125 -0.40625 -1.484375 -0.984375q-0.671875 -0.578125 -1.140625 -1.296875q-0.46875 -0.734375 -0.734375 -1.609375q-0.265625 -0.875 -0.265625 -1.875q0 -0.984375 0.265625 -1.859375q0.265625 -0.890625 0.734375 -1.609375q0.46875 -0.734375 1.140625 -1.3125q0.671875 -0.578125 1.484375 -0.984375q0.828125 -0.40625 1.78125 -0.609375q0.953125 -0.203125 1.984375 -0.203125q1.546875 0 2.890625 0.46875q1.359375 0.46875 2.34375 1.328125q1.0 0.859375 1.5625 2.078125q0.578125 1.203125 0.578125 2.703125zm-3.375 0q0 -0.953125 -0.328125 -1.671875q-0.328125 -0.734375 -0.890625 -1.234375q-0.546875 -0.5 -1.265625 -0.75q-0.71875 -0.265625 -1.515625 -0.265625q-0.796875 0 -1.53125 0.265625q-0.71875 0.25 -1.265625 0.75q-0.546875 0.5 -0.890625 1.234375q-0.328125 0.71875 -0.328125 1.671875q0 0.953125 0.328125 1.6875q0.34375 0.71875 0.890625 1.21875q0.546875 0.5 1.265625 0.765625q0.734375 0.25 1.53125 0.25q0.796875 0 1.515625 -0.25q0.71875 -0.265625 1.265625 -0.765625q0.5625 -0.5 0.890625 -1.21875q0.328125 -0.734375 0.328125 -1.6875zm20.300438 0q0 1.5 -0.578125 2.71875q-0.5625 1.203125 -1.5625 2.078125q-0.984375 0.859375 -2.34375 1.328125q-1.34375 0.46875 -2.890625 0.46875q-1.03125 0 -1.984375 -0.21875q-0.953125 -0.203125 -1.78125 -0.609375q-0.8125 -0.40625 -1.484375 -0.984375q-0.6718674 -0.578125 -1.1406174 -1.296875q-0.46875 -0.734375 -0.734375 -1.609375q-0.265625 -0.875 -0.265625 -1.875q0 -0.984375 0.265625 -1.859375q0.265625 -0.890625 0.734375 -1.609375q0.46875 -0.734375 1.1406174 -1.3125q0.671875 -0.578125 1.484375 -0.984375q0.828125 -0.40625 1.78125 -0.609375q0.953125 -0.203125 1.984375 -0.203125q1.546875 0 2.890625 0.46875q1.359375 0.46875 2.34375 1.328125q1.0 0.859375 1.5625 2.078125q0.578125 1.203125 0.578125 2.703125zm-3.375 0q0 -0.953125 -0.328125 -1.671875q-0.328125 -0.734375 -0.890625 -1.234375q-0.546875 -0.5 -1.265625 -0.75q-0.71875 -0.265625 -1.515625 -0.265625q-0.796875 0 -1.53125 0.265625q-0.71875 0.25 -1.265625 0.75q-0.546875 0.5 -0.890625 1.234375q-0.328125 0.71875 -0.328125 1.671875q0 0.953125 0.328125 1.6875q0.34375 0.71875 0.890625 1.21875q0.546875 0.5 1.265625 0.765625q0.734375 0.25 1.53125 0.25q0.796875 0 1.515625 -0.25q0.71875 -0.265625 1.265625 -0.765625q0.5625 -0.5 0.890625 -1.21875q0.328125 -0.734375 0.328125 -1.6875z" fill-rule="nonzero"/><path fill="#000000" fill-opacity="0.0" d="m255.79002 127.96326l96.377945 0l0 56.377945l-96.377945 0z" fill-rule="evenodd"/><path fill="#000000" d="m286.1231 163.07224l0 -10.015625l-3.359375 1.046875l0 -2.515625l3.359375 -1.03125l3.359375 0l0 12.515625l-3.359375 0zm21.251526 -6.25q0 1.5 -0.578125 2.71875q-0.5625 1.203125 -1.5625 2.078125q-0.984375 0.859375 -2.34375 1.328125q-1.34375 0.46875 -2.890625 0.46875q-1.03125 0 -1.984375 -0.21875q-0.953125 -0.203125 -1.78125 -0.609375q-0.8125 -0.40625 -1.484375 -0.984375q-0.671875 -0.578125 -1.140625 -1.296875q-0.46875 -0.734375 -0.734375 -1.609375q-0.265625 -0.875 -0.265625 -1.875q0 -0.984375 0.265625 -1.859375q0.265625 -0.890625 0.734375 -1.609375q0.46875 -0.734375 1.140625 -1.3125q0.671875 -0.578125 1.484375 -0.984375q0.828125 -0.40625 1.78125 -0.609375q0.953125 -0.203125 1.984375 -0.203125q1.546875 0 2.890625 0.46875q1.359375 0.46875 2.34375 1.328125q1.0 0.859375 1.5625 2.078125q0.578125 1.203125 0.578125 2.703125zm-3.375 0q0 -0.953125 -0.328125 -1.671875q-0.328125 -0.734375 -0.890625 -1.234375q-0.546875 -0.5 -1.265625 -0.75q-0.71875 -0.265625 -1.515625 -0.265625q-0.796875 0 -1.53125 0.265625q-0.71875 0.25 -1.265625 0.75q-0.546875 0.5 -0.890625 1.234375q-0.328125 0.71875 -0.328125 1.671875q0 0.953125 0.328125 1.6875q0.34375 0.71875 0.890625 1.21875q0.546875 0.5 1.265625 0.765625q0.734375 0.25 1.53125 0.25q0.796875 0 1.515625 -0.25q0.71875 -0.265625 1.265625 -0.765625q0.5625 -0.5 0.890625 -1.21875q0.328125 -0.734375 0.328125 -1.6875zm20.300446 0q0 1.5 -0.578125 2.71875q-0.5625 1.203125 -1.5625 2.078125q-0.984375 0.859375 -2.34375 1.328125q-1.34375 0.46875 -2.890625 0.46875q-1.03125 0 -1.984375 -0.21875q-0.953125 -0.203125 -1.78125 -0.609375q-0.8125 -0.40625 -1.484375 -0.984375q-0.671875 -0.578125 -1.140625 -1.296875q-0.46875 -0.734375 -0.734375 -1.609375q-0.265625 -0.875 -0.265625 -1.875q0 -0.984375 0.265625 -1.859375q0.265625 -0.890625 0.734375 -1.609375q0.46875 -0.734375 1.140625 -1.3125q0.671875 -0.578125 1.484375 -0.984375q0.828125 -0.40625 1.78125 -0.609375q0.953125 -0.203125 1.984375 -0.203125q1.546875 0 2.890625 0.46875q1.359375 0.46875 2.34375 1.328125q1.0 0.859375 1.5625 2.078125q0.578125 1.203125 0.578125 2.703125zm-3.375 0q0 -0.953125 -0.328125 -1.671875q-0.328125 -0.734375 -0.890625 -1.234375q-0.546875 -0.5 -1.265625 -0.75q-0.71875 -0.265625 -1.515625 -0.265625q-0.796875 0 -1.53125 0.265625q-0.71875 0.25 -1.265625 0.75q-0.546875 0.5 -0.890625 1.234375q-0.328125 0.71875 -0.328125 1.671875q0 0.953125 0.328125 1.6875q0.34375 0.71875 0.890625 1.21875q0.546875 0.5 1.265625 0.765625q0.734375 0.25 1.53125 0.25q0.796875 0 1.515625 -0.25q0.71875 -0.265625 1.265625 -0.765625q0.5625 -0.5 0.890625 -1.21875q0.328125 -0.734375 0.328125 -1.6875z" fill-rule="nonzero"/><path fill="#000000" fill-opacity="0.0" d="m471.79004 128.89502l96.37793 0l0 56.377945l-96.37793 0z" fill-rule="evenodd"/><path fill="#000000" d="m510.58585 164.00398l0 -10.015625l-3.359375 1.046875l0 -2.515625l3.359375 -1.03125l3.3593445 0l0 12.515625l-3.3593445 0zm21.251495 -6.25q0 1.5 -0.578125 2.71875q-0.5625 1.203125 -1.5625 2.078125q-0.984375 0.859375 -2.34375 1.328125q-1.34375 0.46875 -2.890625 0.46875q-1.03125 0 -1.984375 -0.21875q-0.953125 -0.203125 -1.78125 -0.609375q-0.8125 -0.40625 -1.484375 -0.984375q-0.671875 -0.578125 -1.140625 -1.296875q-0.46875 -0.734375 -0.734375 -1.609375q-0.265625 -0.875 -0.265625 -1.875q0 -0.984375 0.265625 -1.859375q0.265625 -0.890625 0.734375 -1.609375q0.46875 -0.734375 1.140625 -1.3125q0.671875 -0.578125 1.484375 -0.984375q0.828125 -0.40625 1.78125 -0.609375q0.953125 -0.203125 1.984375 -0.203125q1.546875 0 2.890625 0.46875q1.359375 0.46875 2.34375 1.328125q1.0 0.859375 1.5625 2.078125q0.578125 1.203125 0.578125 2.703125zm-3.375 0q0 -0.953125 -0.328125 -1.671875q-0.328125 -0.734375 -0.890625 -1.234375q-0.546875 -0.5 -1.265625 -0.75q-0.71875 -0.265625 -1.515625 -0.265625q-0.796875 0 -1.53125 0.265625q-0.71875 0.25 -1.265625 0.75q-0.546875 0.5 -0.890625 1.234375q-0.328125 0.71875 -0.328125 1.671875q0 0.953125 0.328125 1.6875q0.34375 0.71875 0.890625 1.21875q0.546875 0.5 1.265625 0.765625q0.734375 0.25 1.53125 0.25q0.796875 0 1.515625 -0.25q0.71875 -0.265625 1.265625 -0.765625q0.5625 -0.5 0.890625 -1.21875q0.328125 -0.734375 0.328125 -1.6875z" fill-rule="nonzero"/><path fill="#000000" fill-opacity="0.0" d="m687.79004 127.96326l96.37793 0l0 56.377945l-96.37793 0z" fill-rule="evenodd"/><path fill="#000000" d="m735.0486 163.07224l0 -10.015625l-3.359375 1.046875l0 -2.515625l3.359375 -1.03125l3.359375 0l0 12.515625l-3.359375 0z" fill-rule="nonzero"/><path fill="#efefef" d="m23.396326 283.74863l0 0c0 -16.565979 13.429377 -29.995346 29.995352 -29.995346l718.9385 0c7.955261 0 15.584656 3.160202 21.2099 8.785446c5.625183 5.6252136 8.7854 13.254639 8.7854 21.2099l0 119.97781c0 16.565979 -13.429382 29.99533 -29.9953 29.99533l-718.9385 0c-16.565975 0 -29.995352 -13.429352 -29.995352 -29.99533z" fill-rule="evenodd"/><path stroke="#000000" stroke-width="1.0" stroke-linejoin="round" stroke-linecap="butt" d="m23.396326 283.74863l0 0c0 -16.565979 13.429377 -29.995346 29.995352 -29.995346l718.9385 0c7.955261 0 15.584656 3.160202 21.2099 8.785446c5.625183 5.6252136 8.7854 13.254639 8.7854 21.2099l0 119.97781c0 16.565979 -13.429382 29.99533 -29.9953 29.99533l-718.9385 0c-16.565975 0 -29.995352 -13.429352 -29.995352 -29.99533z" fill-rule="evenodd"/><path fill="#434343" d="m140.70341 96.19972l40.58554 0l0 -40.58555l29.380081 0l0 40.58555l40.585556 0l0 29.380081l-40.585556 0l0 40.585556l-29.380081 0l0 -40.585556l-40.58554 0z" fill-rule="evenodd"/><path stroke="#000000" stroke-width="1.0" stroke-linejoin="round" stroke-linecap="butt" d="m140.70341 96.19972l40.58554 0l0 -40.58555l29.380081 0l0 40.58555l40.585556 0l0 29.380081l-40.585556 0l0 40.585556l-29.380081 0l0 -40.585556l-40.58554 0z" fill-rule="evenodd"/><path fill="#434343" d="m356.7034 96.19972l40.58557 0l0 -40.58555l29.380066 0l0 40.58555l40.58557 0l0 29.380081l-40.58557 0l0 40.585556l-29.380066 0l0 -40.585556l-40.58557 0z" fill-rule="evenodd"/><path stroke="#000000" stroke-width="1.0" stroke-linejoin="round" stroke-linecap="butt" d="m356.7034 96.19972l40.58557 0l0 -40.58555l29.380066 0l0 40.58555l40.58557 0l0 29.380081l-40.58557 0l0 40.585556l-29.380066 0l0 -40.585556l-40.58557 0z" fill-rule="evenodd"/><path fill="#434343" d="m572.7034 96.19972l40.58551 0l0 -40.58555l29.380127 0l0 40.58555l40.58551 0l0 29.380081l-40.58551 0l0 40.585556l-29.380127 0l0 -40.585556l-40.58551 0z" fill-rule="evenodd"/><path stroke="#000000" stroke-width="1.0" stroke-linejoin="round" stroke-linecap="butt" d="m572.7034 96.19972l40.58551 0l0 -40.58555l29.380127 0l0 40.58555l40.58551 0l0 29.380081l-40.58551 0l0 40.585556l-29.380127 0l0 -40.585556l-40.58551 0z" fill-rule="evenodd"/><path fill="#000000" fill-opacity="0.0" d="m39.790028 356.61942l660.8504 0l0 77.102356l-660.8504 0z" fill-rule="evenodd"/><path fill="#000000" d="m66.29002 373.43317l3.03125 0l0 13.234375q0 3.453125 -0.78125 5.484375q-0.78125 2.03125 -2.828125 3.3125q-2.0312462 1.265625 -5.343746 1.265625q-3.21875 0 -5.265625 -1.109375q-2.046875 -1.109375 -2.921875 -3.203125q-0.875 -2.109375 -0.875 -5.75l0 -13.234375l3.03125 0l0 13.21875q0 2.984375 0.546875 4.40625q0.5625 1.40625 1.90625 2.171875q1.359375 0.765625 3.3125 0.765625q3.34375 0 4.765621 -1.515625q1.421875 -1.515625 1.421875 -5.828125l0 -13.21875zm7.953125 22.90625l0 -22.90625l3.03125 0l0 20.203125l11.28125 0l0 2.703125l-14.3125 0zm17.0625 0.390625l1.359375 -6.65625l-2.640625 0l0 -2.328125l3.109375 0l1.15625 -5.671875l-4.265625 0l0 -2.328125l4.734375 0l1.359375 -6.703125l2.34375 0l-1.359375 6.703125l4.921875 0l1.359375 -6.703125l2.359375 0l-1.359375 6.703125l2.703125 0l0 2.328125l-3.171875 0l-1.171875 5.671875l4.34375 0l0 2.328125l-4.8125 0l-1.359375 6.65625l-2.34375 0l1.34375 -6.65625l-4.90625 0l-1.359375 6.65625l-2.34375 0zm4.171875 -8.984375l4.90625 0l1.171875 -5.671875l-4.921875 0l-1.15625 5.671875zm15.0 8.59375l0 -22.90625l3.03125 0l0 22.90625l-3.03125 0zm8.375 0l0 -22.90625l7.890625 0q2.671875 0 4.078125 0.328125q1.96875 0.453125 3.359375 1.640625q1.8125 1.53125 2.703125 3.921875q0.90625 2.375 0.90625 5.4375q0 2.609375 -0.609375 4.625q-0.609375 2.015625 -1.5625 3.34375q-0.953125 1.3125 -2.09375 2.078125q-1.125 0.75 -2.734375 1.140625q-1.59375 0.390625 -3.671875 0.390625l-8.265625 0zm3.03125 -2.703125l4.890625 0q2.265625 0 3.546875 -0.421875q1.296875 -0.421875 2.0625 -1.1875q1.078125 -1.078125 1.671875 -2.890625q0.609375 -1.828125 0.609375 -4.421875q0 -3.59375 -1.1875 -5.515625q-1.171875 -1.9375 -2.859375 -2.59375q-1.21875 -0.46875 -3.921875 -0.46875l-4.8125 0l0 17.5zm28.84375 2.703125l0 -22.90625l3.03125 0l0 20.203125l11.28125 0l0 2.703125l-14.3125 0zm18.4375 0l0 -22.90625l3.03125 0l0 22.90625l-3.03125 0zm8.8125 0l0 -3.203125l3.203125 0l0 3.203125l-3.203125 0zm5.9375 0l8.796875 -22.90625l3.265625 0l9.375 22.90625l-3.453125 0l-2.671875 -6.9375l-9.578125 0l-2.515625 6.9375l-3.21875 0zm6.609375 -9.40625l7.765625 0l-2.390625 -6.34375q-1.09375 -2.890625 -1.625 -4.75q-0.4375 2.203125 -1.234375 4.375l-2.515625 6.71875zm33.59375 1.375l3.03125 0.765625q-0.953125 3.734375 -3.4375 5.703125q-2.46875 1.953125 -6.046875 1.953125q-3.703125 0 -6.03125 -1.5q-2.3125 -1.515625 -3.53125 -4.375q-1.203125 -2.859375 -1.203125 -6.140625q0 -3.578125 1.359375 -6.234375q1.375 -2.671875 3.890625 -4.046875q2.53125 -1.390625 5.5625 -1.390625q3.4375 0 5.78125 1.75q2.34375 1.75 3.265625 4.921875l-2.984375 0.703125q-0.796875 -2.5 -2.3125 -3.640625q-1.515625 -1.140625 -3.8125 -1.140625q-2.640625 0 -4.421875 1.265625q-1.765625 1.265625 -2.484375 3.40625q-0.71875 2.125 -0.71875 4.390625q0 2.921875 0.84375 5.109375q0.859375 2.171875 2.65625 3.25q1.796875 1.078125 3.890625 1.078125q2.546875 0 4.3125 -1.46875q1.765625 -1.46875 2.390625 -4.359375zm6.640625 8.03125l0 -22.90625l3.03125 0l0 20.203125l11.28125 0l0 2.703125l-14.3125 0zm15.40625 0l8.796875 -22.90625l3.2656403 0l9.375 22.90625l-3.453125 0l-2.671875 -6.9375l-9.57814 0l-2.515625 6.9375l-3.21875 0zm6.609375 -9.40625l7.7656403 0l-2.390625 -6.34375q-1.09375 -2.890625 -1.625 -4.75q-0.4375 2.203125 -1.2343903 4.375l-2.515625 6.71875zm16.218765 2.046875l2.859375 -0.25q0.203125 1.71875 0.9375 2.828125q0.75 1.09375 2.3125 1.78125q1.5625 0.671875 3.515625 0.671875q1.734375 0 3.0625 -0.515625q1.328125 -0.515625 1.96875 -1.40625q0.65625 -0.90625 0.65625 -1.96875q0 -1.078125 -0.625 -1.875q-0.625 -0.8125 -2.0625 -1.359375q-0.921875 -0.359375 -4.078125 -1.109375q-3.15625 -0.765625 -4.421875 -1.4375q-1.640625 -0.859375 -2.453125 -2.125q-0.796875 -1.28125 -0.796875 -2.859375q0 -1.734375 0.984375 -3.234375q0.984375 -1.515625 2.875 -2.296875q1.890625 -0.78125 4.203125 -0.78125q2.546875 0 4.484375 0.828125q1.953125 0.8125 3.0 2.40625q1.046875 1.59375 1.125 3.609375l-2.90625 0.21875q-0.234375 -2.171875 -1.59375 -3.28125q-1.34375 -1.109375 -3.984375 -1.109375q-2.75 0 -4.015625 1.015625q-1.25 1.0 -1.25 2.421875q0 1.234375 0.890625 2.03125q0.875 0.796875 4.5625 1.640625q3.703125 0.828125 5.078125 1.453125q2.0 0.921875 2.953125 2.34375q0.953125 1.40625 0.953125 3.25q0 1.828125 -1.046875 3.453125q-1.046875 1.609375 -3.015625 2.515625q-1.953125 0.890625 -4.40625 0.890625q-3.109375 0 -5.21875 -0.90625q-2.09375 -0.90625 -3.296875 -2.71875q-1.1875 -1.828125 -1.25 -4.125zm21.34375 0l2.859375 -0.25q0.203125 1.71875 0.9375 2.828125q0.75 1.09375 2.3125 1.78125q1.5625 0.671875 3.515625 0.671875q1.734375 0 3.0625 -0.515625q1.328125 -0.515625 1.96875 -1.40625q0.65625 -0.90625 0.65625 -1.96875q0 -1.078125 -0.625 -1.875q-0.625 -0.8125 -2.0625 -1.359375q-0.921875 -0.359375 -4.078125 -1.109375q-3.15625 -0.765625 -4.421875 -1.4375q-1.640625 -0.859375 -2.453125 -2.125q-0.796875 -1.28125 -0.796875 -2.859375q0 -1.734375 0.984375 -3.234375q0.984375 -1.515625 2.875 -2.296875q1.890625 -0.78125 4.203125 -0.78125q2.546875 0 4.484375 0.828125q1.953125 0.8125 3.0 2.40625q1.046875 1.59375 1.125 3.609375l-2.90625 0.21875q-0.234375 -2.171875 -1.59375 -3.28125q-1.34375 -1.109375 -3.984375 -1.109375q-2.75 0 -4.015625 1.015625q-1.25 1.0 -1.25 2.421875q0 1.234375 0.890625 2.03125q0.875 0.796875 4.5625 1.640625q3.703125 0.828125 5.078125 1.453125q2.0 0.921875 2.953125 2.34375q0.953125 1.40625 0.953125 3.25q0 1.828125 -1.046875 3.453125q-1.046875 1.609375 -3.015625 2.515625q-1.953125 0.890625 -4.40625 0.890625q-3.109375 0 -5.21875 -0.90625q-2.09375 -0.90625 -3.296875 -2.71875q-1.1875 -1.828125 -1.25 -4.125zm28.75 7.359375l8.796875 -22.90625l3.265625 0l9.375 22.90625l-3.453125 0l-2.671875 -6.9375l-9.578125 0l-2.515625 6.9375l-3.21875 0zm6.609375 -9.40625l7.765625 0l-2.390625 -6.34375q-1.09375 -2.890625 -1.625 -4.75q-0.4375 2.203125 -1.234375 4.375l-2.515625 6.71875z" fill-rule="nonzero"/><path fill="#93c47d" d="m29.790026 308.0105l0 0c0 -4.1225586 3.342001 -7.464569 7.464567 -7.464569l18.661419 0l0 0l11.19685 0l0 0l0 0c1.9797287 0 3.8783646 0.786438 5.278244 2.1863098c1.3998795 1.3999023 2.186325 3.298523 2.186325 5.2782593l0 19.120728l0 0l0 11.393707l0 0.13122559c0 4.122589 -3.3420029 7.464569 -7.464569 7.464569l0 0l-3.9602509 15.529175l-7.236599 -15.529175l-18.661419 0c-4.122566 0 -7.464567 -3.34198 -7.464567 -7.464569l0 -0.13122559l0 -11.393707l0 0z" fill-rule="evenodd"/><path stroke="#000000" stroke-width="1.0" stroke-linejoin="round" stroke-linecap="butt" d="m29.790026 308.0105l0 0c0 -4.1225586 3.342001 -7.464569 7.464567 -7.464569l18.661419 0l0 0l11.19685 0l0 0l0 0c1.9797287 0 3.8783646 0.786438 5.278244 2.1863098c1.3998795 1.3999023 2.186325 3.298523 2.186325 5.2782593l0 19.120728l0 0l0 11.393707l0 0.13122559c0 4.122589 -3.3420029 7.464569 -7.464569 7.464569l0 0l-3.9602509 15.529175l-7.236599 -15.529175l-18.661419 0c-4.122566 0 -7.464567 -3.34198 -7.464567 -7.464569l0 -0.13122559l0 -11.393707l0 0z" fill-rule="evenodd"/><path fill="#000000" d="m47.929447 330.25333l-1.640625 0l0 -10.453125q-0.59375 0.5625 -1.5625 1.140625q-0.953125 0.5625 -1.71875 0.84375l0 -1.59375q1.375 -0.640625 2.40625 -1.5625q1.03125 -0.921875 1.453125 -1.78125l1.0625 0l0 13.40625z" fill-rule="nonzero"/><path fill="#93c47d" d="m82.08924 308.14172l0 0c0 -4.195038 3.4007568 -7.5957947 7.5957947 -7.5957947l26.595802 0l0 0l14.653549 0l2.1732178 0c2.0145416 0 3.9465637 0.80026245 5.371048 2.224762c1.4244843 1.4244995 2.224762 3.3565063 2.224762 5.3710327l0 18.989502l0 0l0 11.393707l0 0c0 4.195038 -3.4007568 7.5957947 -7.59581 7.5957947l-2.1732178 0l-14.961464 21.013184l0.30791473 -21.013184l-26.595802 0l0 0c-4.195038 0 -7.5957947 -3.4007568 -7.5957947 -7.5957947l0 0l0 -11.393707l0 0z" fill-rule="evenodd"/><path stroke="#000000" stroke-width="1.0" stroke-linejoin="round" stroke-linecap="butt" d="m82.08924 308.14172l0 0c0 -4.195038 3.4007568 -7.5957947 7.5957947 -7.5957947l26.595802 0l0 0l14.653549 0l2.1732178 0c2.0145416 0 3.9465637 0.80026245 5.371048 2.224762c1.4244843 1.4244995 2.224762 3.3565063 2.224762 5.3710327l0 18.989502l0 0l0 11.393707l0 0c0 4.195038 -3.4007568 7.5957947 -7.59581 7.5957947l-2.1732178 0l-14.961464 21.013184l0.30791473 -21.013184l-26.595802 0l0 0c-4.195038 0 -7.5957947 -3.4007568 -7.5957947 -7.5957947l0 0l0 -11.393707l0 0z" fill-rule="evenodd"/><path fill="#000000" d="m100.2671 330.25333l-1.640625 0l0 -10.453125q-0.59375 0.5625 -1.5625 1.140625q-0.953125 0.5625 -1.71875 0.84375l0 -1.59375q1.375 -0.640625 2.40625 -1.5625q1.03125 -0.921875 1.453125 -1.78125l1.0625 0l0 13.40625zm4.203842 -6.59375q0 -2.359375 0.484375 -3.796875q0.484375 -1.453125 1.4375 -2.234375q0.96875 -0.78125 2.421875 -0.78125q1.078125 0 1.890625 0.4375q0.8125 0.421875 1.328125 1.25q0.53125 0.8125 0.828125 1.984375q0.3125 1.15625 0.3125 3.140625q0 2.359375 -0.484375 3.8125q-0.484375 1.4375 -1.453125 2.234375q-0.953125 0.78125 -2.421875 0.78125q-1.921875 0 -3.03125 -1.390625q-1.3125 -1.671875 -1.3125 -5.4375zm1.671875 0q0 3.296875 0.765625 4.390625q0.78125 1.078125 1.90625 1.078125q1.140625 0 1.90625 -1.09375q0.765625 -1.09375 0.765625 -4.375q0 -3.296875 -0.765625 -4.375q-0.765625 -1.078125 -1.921875 -1.078125q-1.125 0 -1.796875 0.953125q-0.859375 1.21875 -0.859375 4.5zm8.703842 0q0 -2.359375 0.484375 -3.796875q0.484375 -1.453125 1.4375 -2.234375q0.96875 -0.78125 2.421875 -0.78125q1.078125 0 1.890625 0.4375q0.8125 0.421875 1.328125 1.25q0.53125 0.8125 0.828125 1.984375q0.3125 1.15625 0.3125 3.140625q0 2.359375 -0.484375 3.8125q-0.484375 1.4375 -1.453125 2.234375q-0.953125 0.78125 -2.421875 0.78125q-1.921875 0 -3.03125 -1.390625q-1.3125 -1.671875 -1.3125 -5.4375zm1.671875 0q0 3.296875 0.765625 4.390625q0.78125 1.078125 1.90625 1.078125q1.140625 0 1.90625 -1.09375q0.765625 -1.09375 0.765625 -4.375q0 -3.296875 -0.765625 -4.375q-0.765625 -1.078125 -1.921875 -1.078125q-1.125 0 -1.796875 0.953125q-0.859375 1.21875 -0.859375 4.5z" fill-rule="nonzero"/><path fill="#93c47d" d="m148.21523 308.0105l0 0c0 -4.1225586 3.3419952 -7.464569 7.464569 -7.464569l0 0l0 0l11.196854 0l18.661407 0l0 0c1.9797211 0 3.8783722 0.786438 5.278244 2.1863098c1.3998871 1.3999023 2.186325 3.298523 2.186325 5.2782593l0 19.120728l0 0l0 11.393707l0 0.13122559c0 4.122589 -3.3419952 7.464569 -7.464569 7.464569l-18.661407 0l-0.87680054 20.317719l-10.320053 -20.317719l0 0c-4.122574 0 -7.464569 -3.34198 -7.464569 -7.464569l0 -0.13122559l0 -11.393707l0 0z" fill-rule="evenodd"/><path stroke="#000000" stroke-width="1.0" stroke-linejoin="round" stroke-linecap="butt" d="m148.21523 308.0105l0 0c0 -4.1225586 3.3419952 -7.464569 7.464569 -7.464569l0 0l0 0l11.196854 0l18.661407 0l0 0c1.9797211 0 3.8783722 0.786438 5.278244 2.1863098c1.3998871 1.3999023 2.186325 3.298523 2.186325 5.2782593l0 19.120728l0 0l0 11.393707l0 0.13122559c0 4.122589 -3.3419952 7.464569 -7.464569 7.464569l-18.661407 0l-0.87680054 20.317719l-10.320053 -20.317719l0 0c-4.122574 0 -7.464569 -3.34198 -7.464569 -7.464569l0 -0.13122559l0 -11.393707l0 0z" fill-rule="evenodd"/><path fill="#000000" d="m166.35464 330.25333l-1.640625 0l0 -10.453125q-0.59375 0.5625 -1.5625 1.140625q-0.953125 0.5625 -1.71875 0.84375l0 -1.59375q1.375 -0.640625 2.40625 -1.5625q1.03125 -0.921875 1.453125 -1.78125l1.0625 0l0 13.40625z" fill-rule="nonzero"/><path fill="#93c47d" d="m200.51443 308.14172l0 0c0 -4.195038 3.4007568 -7.5957947 7.5957947 -7.5957947l26.59581 0l0 0l14.653534 0l2.173233 0c2.0145264 0 3.9465485 0.80026245 5.3710327 2.224762c1.4244995 1.4244995 2.224762 3.3565063 2.224762 5.3710327l0 18.989502l0 0l0 11.393707l0 0c0 4.195038 -3.4007416 7.5957947 -7.5957947 7.5957947l-2.173233 0l-14.961456 21.013184l0.30792236 -21.013184l-26.59581 0l0 0c-4.195038 0 -7.5957947 -3.4007568 -7.5957947 -7.5957947l0 0l0 -11.393707l0 0z" fill-rule="evenodd"/><path stroke="#000000" stroke-width="1.0" stroke-linejoin="round" stroke-linecap="butt" d="m200.51443 308.14172l0 0c0 -4.195038 3.4007568 -7.5957947 7.5957947 -7.5957947l26.59581 0l0 0l14.653534 0l2.173233 0c2.0145264 0 3.9465485 0.80026245 5.3710327 2.224762c1.4244995 1.4244995 2.224762 3.3565063 2.224762 5.3710327l0 18.989502l0 0l0 11.393707l0 0c0 4.195038 -3.4007416 7.5957947 -7.5957947 7.5957947l-2.173233 0l-14.961456 21.013184l0.30792236 -21.013184l-26.59581 0l0 0c-4.195038 0 -7.5957947 -3.4007568 -7.5957947 -7.5957947l0 0l0 -11.393707l0 0z" fill-rule="evenodd"/><path fill="#000000" d="m218.69229 330.25333l-1.640625 0l0 -10.453125q-0.59375 0.5625 -1.5625 1.140625q-0.953125 0.5625 -1.71875 0.84375l0 -1.59375q1.375 -0.640625 2.40625 -1.5625q1.03125 -0.921875 1.453125 -1.78125l1.0625 0l0 13.40625zm4.203842 -6.59375q0 -2.359375 0.484375 -3.796875q0.484375 -1.453125 1.4375 -2.234375q0.96875 -0.78125 2.421875 -0.78125q1.078125 0 1.890625 0.4375q0.8125 0.421875 1.328125 1.25q0.53125 0.8125 0.828125 1.984375q0.3125 1.15625 0.3125 3.140625q0 2.359375 -0.484375 3.8125q-0.484375 1.4375 -1.453125 2.234375q-0.953125 0.78125 -2.421875 0.78125q-1.921875 0 -3.03125 -1.390625q-1.3125 -1.671875 -1.3125 -5.4375zm1.671875 0q0 3.296875 0.765625 4.390625q0.78125 1.078125 1.90625 1.078125q1.140625 0 1.90625 -1.09375q0.765625 -1.09375 0.765625 -4.375q0 -3.296875 -0.765625 -4.375q-0.765625 -1.078125 -1.921875 -1.078125q-1.125 0 -1.796875 0.953125q-0.859375 1.21875 -0.859375 4.5z" fill-rule="nonzero"/><path fill="#93c47d" d="m307.38058 308.0105l0 0c0 -4.1225586 3.34198 -7.464569 7.464569 -7.464569l0 0l0 0l11.196838 0l18.661407 0l0 0c1.9797363 0 3.8783875 0.786438 5.2782593 2.1863098c1.3998718 1.3999023 2.1863098 3.298523 2.1863098 5.2782593l0 19.120728l0 0l0 11.393707l0 0.13122559c0 4.122589 -3.34198 7.464569 -7.464569 7.464569l-18.661407 0l-0.87680054 20.317719l-10.320038 -20.317719l0 0c-4.122589 0 -7.464569 -3.34198 -7.464569 -7.464569l0 -0.13122559l0 -11.393707l0 0z" fill-rule="evenodd"/><path stroke="#000000" stroke-width="1.0" stroke-linejoin="round" stroke-linecap="butt" d="m307.38058 308.0105l0 0c0 -4.1225586 3.34198 -7.464569 7.464569 -7.464569l0 0l0 0l11.196838 0l18.661407 0l0 0c1.9797363 0 3.8783875 0.786438 5.2782593 2.1863098c1.3998718 1.3999023 2.1863098 3.298523 2.1863098 5.2782593l0 19.120728l0 0l0 11.393707l0 0.13122559c0 4.122589 -3.34198 7.464569 -7.464569 7.464569l-18.661407 0l-0.87680054 20.317719l-10.320038 -20.317719l0 0c-4.122589 0 -7.464569 -3.34198 -7.464569 -7.464569l0 -0.13122559l0 -11.393707l0 0z" fill-rule="evenodd"/><path fill="#000000" d="m325.52 330.25333l-1.640625 0l0 -10.453125q-0.59375 0.5625 -1.5625 1.140625q-0.953125 0.5625 -1.71875 0.84375l0 -1.59375q1.375 -0.640625 2.40625 -1.5625q1.03125 -0.921875 1.453125 -1.78125l1.0625 0l0 13.40625z" fill-rule="nonzero"/><path fill="#434343" d="m393.0476 316.57364l16.896912 0l0 5.4077454l-16.896912 0zm0 8.111633l16.896912 0l0 5.4077454l-16.896912 0z" fill-rule="evenodd"/><path stroke="#000000" stroke-width="1.0" stroke-linejoin="round" stroke-linecap="butt" d="m393.0476 316.57364l16.896912 0l0 5.4077454l-16.896912 0zm0 8.111633l16.896912 0l0 5.4077454l-16.896912 0z" fill-rule="evenodd"/><path fill="#000000" fill-opacity="0.0" d="m439.979 300.98688l132.72443 0l0 44.6929l-132.72443 0z" fill-rule="evenodd"/><path fill="#000000" d="m457.9165 331.87332l-2.109375 0l0 -13.4375q-0.75 0.71875 -2.0 1.453125q-1.234375 0.71875 -2.21875 1.078125l0 -2.03125q1.78125 -0.828125 3.09375 -2.015625q1.328125 -1.1875 1.875 -2.296875l1.359375 0l0 17.25zm13.347656 0l-2.109375 0l0 -13.4375q-0.75 0.71875 -2.0 1.453125q-1.234375 0.71875 -2.21875 1.078125l0 -2.03125q1.78125 -0.828125 3.09375 -2.015625q1.328125 -1.1875 1.875 -2.296875l1.359375 0l0 17.25zm5.4257812 -4.53125l2.109375 -0.28125q0.359375 1.78125 1.234375 2.578125q0.875 0.796875 2.125 0.796875q1.484375 0 2.5 -1.03125q1.03125 -1.03125 1.03125 -2.5625q0 -1.453125 -0.953125 -2.390625q-0.9375 -0.953125 -2.40625 -0.953125q-0.59375 0 -1.484375 0.234375l0.234375 -1.84375q0.203125 0.015625 0.34375 0.015625q1.34375 0 2.421875 -0.703125q1.078125 -0.703125 1.078125 -2.15625q0 -1.171875 -0.796875 -1.921875q-0.78125 -0.765625 -2.015625 -0.765625q-1.234375 0 -2.0625 0.78125q-0.8125 0.765625 -1.046875 2.3125l-2.109375 -0.375q0.390625 -2.125 1.75 -3.28125q1.375 -1.171875 3.421875 -1.171875q1.40625 0 2.578125 0.609375q1.1875 0.59375 1.8125 1.640625q0.640625 1.046875 0.640625 2.21875q0 1.109375 -0.609375 2.03125q-0.59375 0.90625 -1.765625 1.4375q1.53125 0.359375 2.375 1.46875q0.84375 1.109375 0.84375 2.765625q0 2.25 -1.640625 3.828125q-1.640625 1.5625 -4.15625 1.5625q-2.265625 0 -3.765625 -1.34375q-1.484375 -1.359375 -1.6875 -3.5z" fill-rule="nonzero"/></g></svg>